<?xml version="1.0" encoding="utf-8"?>
<!-- Generator: Adobe Illustrator 28.0.0, SVG Export Plug-In . SVG Version: 6.00 Build 0)  -->
<svg version="1.1" id="Layer_1" xmlns="http://www.w3.org/2000/svg" xmlns:xlink="http://www.w3.org/1999/xlink" x="0px" y="0px"
	 viewBox="0 0 800 800" style="enable-background:new 0 0 800 800;" xml:space="preserve">
<path fill="#EA8D2E" d="M504.4,713.9c-46.9,15.9-97.2,15.4-146,14.6c2.8-54.9-0.6-111.8-10.3-166.1c10.8,3.2,22,6.5,33.2,6.5
	c3.6,0,7.2-0.2,10.8-0.5c21.9-2.2,43.1-11.1,60.5-24.8C459.1,602.8,476.9,661.4,504.4,713.9z"/>
<path fill-rule="evenodd" clip-rule="evenodd" fill="#C8D64B" d="M404.1,73.4c36.2-2.1,72.9,23.4,83.6,58.1c0.3,0.8,0.8,1.5,1.6,1.9c0.8,0.4,1.7,0.4,2.5,0.1
	c35.5-13.3,78.5-3.5,104.6,24c26.1,27.5,33.7,70.9,18.6,105.7c-0.7,1.5-0.1,3.3,1.4,4c27.7,15,45.3,47.4,42.9,78.8
	c-2.4,31.4-24.8,60.8-54.5,71.4c-1.4,0.5-2.2,1.9-2.1,3.3c3.4,30.6-10,62.6-34.3,81.6c-24.2,19-58.6,24.3-87.4,13.6
	c-1.4-0.5-3,0-3.8,1.3c-17.5,28.3-48.9,47.9-82,51.2c-33.1,3.3-67.8-9.8-90.5-34.1c-0.6-0.7-1.5-1-2.3-1c-0.4,0-0.8,0.1-1.2,0.2
	c-34.5,14.4-72.3,12-98.6-6.3c-29.2-20.3-40.4-61.1-24.5-89.3c0.5-0.8,0.5-1.9,0.2-2.8c-0.4-0.9-1.1-1.6-2.1-1.8
	c-30.8-8.6-54.6-38.1-56.5-70c-1.9-32,18.3-64,47.9-76.1c0.8-0.3,1.4-0.9,1.7-1.7c0.3-0.8,0.3-1.7,0-2.5
	c-15.2-34.3-12.6-75.5,6.8-107.6c19.4-32.1,54.7-53.6,92.2-56c10.9-0.7,38-0.3,53.2,18.5c0.8,0.9,2,1.4,3.2,1.1
	c1.2-0.3,2.1-1.2,2.4-2.4C334.6,103.9,369.2,75.5,404.1,73.4z"/>
<path fill-rule="evenodd" clip-rule="evenodd" fill="#E52E2E" d="M286.7,391.2c1.1-1.3,3.1-1.5,4.5-0.4c1.3,1.1,1.5,3.1,0.4,4.5c-4,4.8-6.6,10.8-7.2,17
	c5.2-3.3,11.6-4.8,17.4-3.6c8.4,1.7,15.8,8.4,19,17.2c2.7,7.6,2.5,16.5-0.7,25.2c-3,8.3-8.1,14.4-14.4,17.2
	c-6.3,2.8-13.6,1.9-18.5-1.9c-3,4.6-8.5,7.7-14.5,7.7h-0.2c-6.7,0-13.4-3.6-18.1-9.6c-3.6-4.7-6-10.8-7.2-18.4
	c-1.3-7.9-0.9-14.5,1.2-20.2c2.7-7.4,8.3-13,14.9-14.9c5-1.4,10.5-0.5,14.6,2.2C278.4,405.2,281.5,397.3,286.7,391.2z M271.6,467.8
	c0.3,0,0.6,0,0.9,0l-0.4,0C271.8,467.8,271.7,467.8,271.6,467.8z M274.8,467.6c-0.7,0.2-1.5,0.3-2.3,0.3c0.9,0,1.8-0.1,2.7-0.4
	L274.8,467.6z M268.9,467.3c0.6,0.2,1.2,0.3,1.8,0.4l-0.4-0.1c-0.6-0.1-1.2-0.2-1.8-0.4L268.9,467.3z M284.1,458.2
	c-0.3,0.2-0.6,0.6-0.8,0.9c-0.1,0.1-0.1,0.3-0.2,0.4c-0.1,0.2-0.1,0.3-0.1,0.5c0,0.1-0.1,0.3-0.1,0.4c-0.1,0.5-0.3,1-0.6,1.5
	c-0.1,0.1-0.1,0.2-0.2,0.4c-1,1.8-2.7,3.4-4.8,4.4c-0.1,0.1-0.3,0.1-0.4,0.2c-0.4,0.2-0.8,0.3-1.3,0.5l0.4-0.1
	c3.4-1.2,6.3-4,6.9-7.2c0.2-0.8,0.6-1.5,1.3-1.9L284.1,458.2z M263,464.4c1.6,1.2,3.2,2.1,5,2.7l-0.4-0.2c-0.7-0.3-1.5-0.6-2.2-1
	c-0.1-0.1-0.3-0.2-0.4-0.2C264.3,465.3,263.7,464.8,263,464.4z M310,456.6c-0.2,0.3-0.5,0.6-0.7,0.9c-0.1,0.2-0.3,0.3-0.4,0.5
	c-1.6,1.8-3.6,3.5-5.9,4.6c-1.4,0.6-3.1,1-4.8,1l-0.5,0c1.9,0,3.7-0.3,5.3-1C306,461.2,308.3,458.9,310,456.6z M289.6,460.1
	c1.7,2.1,4.4,3.2,7.1,3.4l-0.5-0.1c-2.3-0.3-4.6-1.2-6.2-2.8C289.9,460.5,289.7,460.3,289.6,460.1z M287.7,457.9
	c-0.6-0.4-1.3-0.5-2.1-0.4c-0.3,0.1-0.6,0.2-0.9,0.3l0.2-0.1c0.2-0.1,0.5-0.2,0.7-0.2c0.8-0.1,1.6,0.1,2.3,0.5L287.7,457.9z
	 M311.6,454.1c-0.4,0.6-0.8,1.3-1.2,1.9l0.3-0.5C311,455.1,311.3,454.6,311.6,454.1z M253.6,446.3c0.5,2.6,1.1,5,1.9,7.1
	c-0.2-0.5-0.4-1-0.5-1.5c-0.1-0.2-0.1-0.3-0.2-0.5C254.3,449.8,253.9,448.1,253.6,446.3z M314.1,448.9c-0.3,0.7-0.6,1.5-1,2.4
	l0.4-0.9C313.7,449.9,313.9,449.4,314.1,448.9z M315.1,445.5c-0.2,0.9-0.5,1.8-0.8,2.7l0.2-0.7C314.7,446.9,314.9,446.2,315.1,445.5
	z M316.1,439.4c-0.1,1.1-0.2,2.2-0.4,3.4l0.1-0.7C316,441.2,316.1,440.3,316.1,439.4z M252.8,440.5c0,0.3,0,0.6,0.1,0.9l0-0.6
	C252.9,440.7,252.9,440.6,252.8,440.5z M316,433.5c0.2,1.3,0.2,2.6,0.2,3.9l0-0.7C316.2,435.6,316.1,434.5,316,433.5z M252.8,435.2
	c0,0.5-0.1,1.1-0.1,1.6l0-0.5C252.8,435.9,252.8,435.6,252.8,435.2z M275.1,419c0,0,0.1,0.1,0.1,0.1c-0.1-0.1-0.3-0.2-0.4-0.3
	L275.1,419z"/>
<path fill-rule="evenodd" clip-rule="evenodd" fill="#E52E2E" d="M400.8,301.9c0.9-1.5,2.9-1.9,4.4-0.9c1.5,0.9,1.9,2.9,0.9,4.4c-2.9,4.5-4.7,9.7-5.3,15.1
	c1.2-1.6,2.4-3,3.8-4.2c5.4-4.6,12.7-6.3,19-4.5c6.3,1.8,11.8,7.2,14.6,14.3c2.5,6.3,2.9,12.9,2.9,19.2c0,6.4-0.3,13.8-2.8,20.8
	c-2.8,7.7-8,13.8-14.4,16.6c-6.1,2.7-13.3,2.1-18.4-1.2c-3.4,5.7-10.2,9.6-17.3,9.6h-0.1c-7.6,0-15.4-4.1-20.7-10.9
	c-4.2-5.5-7-12.6-8.2-21.2c-1.3-9-0.5-16.9,2.5-23.4c3.7-8.3,11-14,19-15c4.9-0.6,9.7,0.9,13.5,3.6
	C394.3,316.4,396.5,308.6,400.8,301.9z M433.3,361.5c-0.2,0.8-0.5,1.6-0.8,2.4c-2.2,6.1-6.2,10.8-11,12.9
	c-5.2,2.3-11.5,1.2-14.7-2.6c-0.8-0.9-1.9-1.3-3.1-1c-1.1,0.3-2,1.1-2.4,2.3c-1.4,5.2-7.1,9.3-13.1,9.3h-0.1
	c-5.7,0-11.6-3.1-15.7-8.4c-2.8-3.6-4.9-8.3-6.1-13.8c1.3,5.5,3.3,10.2,6.1,13.8c4.1,5.3,10,8.4,15.7,8.4h0.1c6,0,11.7-4.1,13.1-9.3
	c0.3-1.1,1.2-2,2.4-2.3c1.2-0.3,2.4,0.1,3.1,1c3.2,3.8,9.5,4.9,14.7,2.6c4.8-2.1,8.8-6.8,11-12.9
	C432.8,363.2,433.1,362.4,433.3,361.5z M365.2,347.9c-0.3,3.2-0.1,6.6,0.4,10.3c0,0.3,0.1,0.6,0.1,0.9c0-0.3-0.1-0.6-0.1-0.9
	C365.1,354.4,364.9,351,365.2,347.9z M433.2,330.5c1.5,4.7,1.7,9.9,1.7,14.8c0,0.7,0,1.5,0,2.2c0-0.8,0-1.5,0-2.2
	C434.9,340.4,434.6,335.3,433.2,330.5z M401.7,333c0.1,0.2,0.1,0.4,0.2,0.6c0,0.2,0.1,0.3,0.1,0.5c0-0.2-0.1-0.3-0.1-0.5
	C401.8,333.4,401.8,333.2,401.7,333L401.7,333z"/>
<path fill-rule="evenodd" clip-rule="evenodd" fill="#E52E2E" d="M531.5,390.9c1-1.5,2.9-1.9,4.4-0.9c1.5,1,1.9,2.9,0.9,4.4c-3.9,5.9-6.3,12.8-7.1,19.8c2.1-1.6,4.6-2.8,7.2-3.3
	c6.4-1.2,13.3,1.3,18.1,6.5c4,4.3,6.5,10.4,7.1,17.2c0.6,6.8-0.8,13.4-1.9,17.8c-1.1,4.6-2.9,10.5-6.4,15.5c-3.8,5.4-9.2,9-14.8,9.9
	c-5.1,0.8-10.4-1-13.9-4.3c-3.4,3.2-8.1,5-13,5c-1.1,0-2.1-0.1-3.2-0.3c-6.5-1.1-12.6-5.3-16.5-11.6c-3.2-5-5-11.3-5.6-18.7
	c-0.6-8.5,0.7-16,3.9-22.1c3.9-7.5,11.1-12.8,18.6-13.7c5-0.6,10,0.8,13.9,3.6C523.8,407,526.7,398.3,531.5,390.9z M550.4,421.8
	c-3.3-3.6-8.1-5.3-12.3-4.6c-3.9,0.7-7.5,4-8.4,7.6c0,0.2-0.1,0.4-0.1,0.6c0,0,0,0,0,0.1c-0.2,1.5-1.4,2.6-2.8,2.7
	c-1.5,0.1-2.8-0.7-3.3-2.1c-1.5-4.5-6.6-7.7-11.8-7.7c-0.5,0-1,0-1.5,0.1c-5.5,0.7-10.8,4.6-13.8,10.3c-1.8,3.4-2.8,7.3-3.2,11.7
	c0.3-4.4,1.4-8.3,3.2-11.7c3-5.7,8.3-9.7,13.8-10.3c0.5-0.1,1-0.1,1.5-0.1c5.2,0,10.3,3.2,11.8,7.7c0.5,1.4,1.8,2.3,3.3,2.1
	c1.5-0.2,2.6-1.3,2.8-2.7c0,0,0,0,0-0.1c0.1-0.2,0.1-0.4,0.1-0.6c0.8-3.5,4.4-6.9,8.4-7.6C542.3,416.4,547.1,418.2,550.4,421.8
	c2.9,3.2,4.8,7.7,5.4,12.9C555.3,429.5,553.4,425,550.4,421.8z"/>
<path fill-rule="evenodd" clip-rule="evenodd" fill="#E52E2E" d="M520.5,158.3c0.8-1.5,2.7-2.2,4.3-1.4c1.6,0.8,2.2,2.7,1.4,4.3c-2.8,5.6-4.3,11.7-4.5,18
	c3.6-3,8.1-4.9,12.9-4.9h0.1c8,0.1,15.8,4.8,20.4,12.5c3.7,6.2,5.4,13.8,5,22.8c-0.4,8-2.4,14.9-5.9,20.4
	c-4.3,6.7-11,11.3-18.1,12.4c-6.3,0.9-12.8-1.2-17.1-5.3c-2.2,2.6-5.4,4.5-9,5.2c-1.1,0.2-2.3,0.3-3.5,0.3c-3.6,0-7.4-1.1-10.9-3.2
	c-6.2-3.7-10.8-10.4-12.7-18.2c-1.6-6.5-1.4-13.7,0.6-21.6c1.7-6.6,4.1-11.7,7.5-15.5c4.5-5.1,10.8-7.7,16.7-7.2
	c2.7,0.3,5.3,1.3,7.4,2.8C515.3,172.3,517.1,164.9,520.5,158.3z M553.7,209.2c-0.3,6.9-2,12.7-4.9,17.3c-3.3,5.2-8.4,8.7-13.7,9.5
	c-5.5,0.8-11.3-1.8-13.8-6.2c-0.6-1.1-1.8-1.7-3.1-1.6c-1.2,0.1-2.3,1-2.7,2.2c-0.9,2.7-3.6,5-6.8,5.6c-3.1,0.6-6.6-0.1-9.8-2
	c-3.2-2-5.9-5-7.8-8.8c1.9,3.7,4.6,6.8,7.8,8.8c3.2,1.9,6.7,2.7,9.8,2c3.2-0.6,5.9-2.9,6.8-5.6c0.4-1.2,1.5-2,2.7-2.2
	c1.3-0.1,2.5,0.5,3.1,1.6c2.5,4.4,8.3,7,13.8,6.2c5.3-0.8,10.4-4.3,13.7-9.5C551.7,221.9,553.3,216.1,553.7,209.2z"/>
<path fill-rule="evenodd" clip-rule="evenodd" fill="#E52E2E" d="M280,166c0.6-1.6,2.4-2.5,4-1.9c1.6,0.6,2.5,2.4,1.9,4c-3,8.2-4.3,17-4,25.7c3.1-3.2,6.9-5.6,10.9-6.8
	c8.6-2.4,18.1,0.6,23.8,7.4c5.5,6.6,6.6,15.3,7.1,23.1c0.4,7.2,0.4,15.6-2.4,23.5c-3.1,8.7-9.5,15.3-17,17.7
	c-7,2.2-14.8,0.2-19.6-4.5c-3.6,4.9-9.8,8.2-16.3,8.2c-0.1,0-0.3,0-0.4,0c-7.6-0.2-15.2-4.3-20.2-11.3c-4.1-5.6-6.6-12.7-7.4-21.2
	c-0.8-8.5,0.2-15.9,3-21.9c3.6-7.6,10.4-13.1,17.7-14.4c5.2-0.9,10.5,0.5,14.6,3.4C275,186.4,276.4,175.9,280,166z M246.7,229.2
	c0.7,7.4,2.8,13.5,6.2,18.1c3.8,5.2,9.7,8.6,15.2,8.7c0.1,0,0.2,0,0.3,0c5.9,0,11.3-3.8,12.8-8.8c0.4-1.3,1.5-2.2,2.8-2.3
	c1.3-0.1,2.6,0.6,3.1,1.9c2.3,5.1,9.3,7.7,15.3,5.9c4.5-1.4,8.5-5,11.2-9.8c-2.7,4.9-6.7,8.4-11.2,9.8c-6,1.9-13-0.8-15.3-5.9
	c-0.5-1.2-1.8-1.9-3.1-1.9c-1.3,0.1-2.4,1-2.8,2.3c-1.5,5-7,8.8-12.8,8.8c-0.1,0-0.2,0-0.3,0c-5.6-0.1-11.4-3.4-15.2-8.7
	C249.5,242.7,247.4,236.6,246.7,229.2z"/>
</svg>
