<svg width="740" height="546" viewBox="0 0 740 546" fill="none" xmlns="http://www.w3.org/2000/svg">
<path fill-rule="evenodd" clip-rule="evenodd" d="M645.483 214.659C646.885 291.784 648.687 370.01 635.374 446.234C617.406 536.422 561.602 546.782 479.672 544.029C403.949 541.577 328.175 546.532 252.501 544.93C198.549 543.028 131.384 528.614 108.862 473.21C97.5506 442.63 99.6026 408.848 96.4996 376.766C93.1964 301.243 86.2897 225.87 85.7892 150.246C86.3397 123.32 85.7391 95.5429 94.5977 69.7178C120.323 -13.6633 276.725 2.50243 347.494 0C398.343 0.300292 448.992 5.75558 499.041 14.3139C556.697 22.4718 607.046 42.6915 632.271 99.0463C648.837 135.131 643.431 176.021 645.483 214.659Z" fill="#ffffff"/>
<path fill-rule="evenodd" clip-rule="evenodd" d="M31.2358 222.11C21.6765 216.705 12.2173 211.2 2.60791 205.895C-3.39793 202.441 2.05739 193.082 8.01318 196.636C14.3694 201.54 40.0443 211.35 40.3946 217.906C40.3946 222.611 34.8393 224.663 31.2358 222.11Z" fill="#ffffff"/>
<path fill-rule="evenodd" clip-rule="evenodd" d="M10.7161 273.617C9.26465 265.259 20.926 266.11 26.1811 263.658C28.9838 262.807 32.0368 264.659 32.7875 267.411C34.239 275.719 22.5776 275.019 17.3225 277.371C14.5698 278.172 11.4668 276.42 10.7161 273.617Z" fill="#ffffff"/>
<path fill-rule="evenodd" clip-rule="evenodd" d="M10.7158 355.198C6.26146 347.44 18.7736 343.236 22.7775 338.282C27.5822 334.978 34.6891 324.568 40.1945 331.975C43.4476 339.182 32.6871 342.386 28.9835 347.04C23.6283 350.193 17.2221 361.754 10.7158 355.198Z" fill="#ffffff"/>
<path fill-rule="evenodd" clip-rule="evenodd" d="M684.571 227.117C682.219 227.067 679.967 225.516 679.366 223.163C678.015 216.557 686.523 214.655 690.827 211.852C697.884 209.85 710.947 196.537 716.753 204.145C720.406 213.154 705.992 214.555 700.837 218.709C695.132 220.911 690.227 225.516 684.571 227.117Z" fill="#ffffff"/>
<path fill-rule="evenodd" clip-rule="evenodd" d="M733.469 278.067C721.207 277.016 708.945 276.065 696.633 276.015C693.73 276.015 691.278 273.563 691.278 270.66C690.927 259.699 726.862 268.208 734.92 267.457C741.777 268.258 740.325 279.118 733.469 278.067Z" fill="#ffffff"/>
<path fill-rule="evenodd" clip-rule="evenodd" d="M702.689 363.506C696.733 357.751 691.028 351.394 684.021 346.89C681.618 346.39 679.717 344.187 679.717 341.635C684.521 325.419 704.09 351.044 710.296 355.899C715.201 360.804 707.544 368.461 702.689 363.506Z" fill="#ffffff"/>
<path fill-rule="evenodd" clip-rule="evenodd" d="M168.82 315.354C117.82 304.643 141.043 252.042 187.938 268.558C236.536 283.072 207.357 320.759 168.82 315.354Z" fill="#FFD5CD"/>
<path fill-rule="evenodd" clip-rule="evenodd" d="M542.333 308.095C527.168 303.09 520.762 282.57 533.925 271.659C550.541 259.197 588.578 259.898 595.885 282.87C599.438 307.694 560.1 315.602 542.333 308.095Z" fill="#FFD5CD"/>
<path fill-rule="evenodd" clip-rule="evenodd" d="M192.693 242.69C184.184 232.18 209.559 216.114 219.469 218.716C228.227 217.816 250.799 233.731 241.14 242.289C231.08 246.493 230.279 223.721 212.062 230.278C203.603 231.479 201.301 247.795 192.693 242.69Z" fill="#631A14"/>
<path fill-rule="evenodd" clip-rule="evenodd" d="M493.686 238.427C486.529 223.713 517.659 206.646 530.021 213.853C536.327 216.906 551.692 230.82 543.434 237.376C531.723 241.68 532.774 214.254 513.405 225.214C503.445 227.967 502.544 245.334 493.686 238.427Z" fill="#631A14"/>
<path fill-rule="evenodd" clip-rule="evenodd" d="M359.405 280.673C342.388 278.121 335.582 260.153 332.279 245.339C331.578 241.535 329.726 236.931 332.679 233.677C338.284 228.973 342.639 235.029 342.238 240.684C345.391 267.56 367.363 283.576 386.331 257.901C391.536 251.545 390.685 242.136 394.989 236.03C417.211 227.421 392.537 290.583 359.405 280.673Z" fill="#631A14"/>
<path fill-rule="evenodd" clip-rule="evenodd" d="M187.638 171.365C173.925 158.252 211.111 150.145 219.819 148.443C226.676 147.442 228.178 158.152 221.271 159.053C212.212 160.905 202.803 163.157 194.995 168.262C193.444 170.865 190.591 172.717 187.638 171.365Z" fill="#631A14"/>
<path fill-rule="evenodd" clip-rule="evenodd" d="M527.568 148.39C518.309 145.437 508.6 144.536 498.94 143.785C496.038 143.285 493.936 140.682 494.336 137.729C495.787 127.87 523.414 136.678 530.371 138.03C537.127 139.881 534.225 150.342 527.568 148.39Z" fill="#631A14"/>
</svg>
