<?xml version="1.0" encoding="utf-8"?>
<!-- Generator: Adobe Illustrator 28.0.0, SVG Export Plug-In . SVG Version: 6.00 Build 0)  -->
<svg version="1.1" id="Layer_1" xmlns="http://www.w3.org/2000/svg" xmlns:xlink="http://www.w3.org/1999/xlink" x="0px" y="0px"
	 viewBox="0 0 755 603" style="enable-background:new 0 0 755 603;" xml:space="preserve">
<style type="text/css">
	.st0{fill:#CF96FB;}
</style>
<path fill="#CF96FB" d="M322.1,236.4c15.7-9.3,34.8-7.8,50.3,1.2c15.8,9.2,26.4,24.4,31.5,41.7c4.3,14.4,5,29.5,4.7,44.5l1.1,1.8
	c0.8,0,1.7-0.1,2.5-0.2c1.4-0.1,2.8-0.3,4.2-0.4c2.3-0.3-2.7,0.4,1.2-0.2c2.4-0.4,4.9-0.8,7.3-1.2c9.8-1.8,19.5-3.9,29.5-4.9
	c17.1-1.7,35.5,2.5,46.7,16.6c10.7,13.5,12.8,31.5,8.5,47.9c-8.5,32.9-39.3,48.4-69.2,58.9c7.5,17.8,14,36.1,14.7,55.7
	c1.2,34.8-21.9,72.2-60,71.5c-19.3-0.3-37.6-9.7-51.2-23c-9-8.8-16.2-19.1-22.7-29.9c-8.2,11.9-18.2,22.6-30.3,30.8
	c-29.9,20.2-76.1,18.4-96.6-14.4c-16.9-27-7.2-61.7,10.9-86.2c-12.6-8.3-24.8-17.4-34.6-28.9c-11.6-13.6-19.1-29.4-20.6-47.3
	c-1.4-16.9,4.4-34.7,17.1-46.2c12.5-11.4,29.3-16.8,46.1-17.2c18.6-0.5,36.6,5.2,53.9,11.2c4.2-14.2,10.2-27.9,17.9-40.6
	C294.2,262.4,306.4,245.7,322.1,236.4z"/>
<path fill="#CF96FB" d="M559.1,105.1c3.4-11.4,4-23.5,4.4-35.3c0.2-5.7,0.4-11.4,1-17.1c0.1-0.6,0.1-1.1,0.2-1.7c-0.2,2,0,0.2,0-0.2
	c0.2-1.3,0.4-2.5,0.7-3.7c0.6-2.8,1.3-5.5,2.3-8.2c0.2-0.5,0.4-1,0.6-1.5c-0.2,0.5-0.9,1.8,0.1-0.1c0.6-1.1,1.1-2.1,1.8-3.2
	c0.3-0.5,2.2-3.1,0.9-1.5c0.9-1.1,1.9-2.2,2.9-3.2c0.5-0.5,1.1-1,1.7-1.5c-0.2,0.2-1.2,0.8-0.1,0.1c1.1-0.8,2.2-1.5,3.3-2.1
	c0.7-0.4,1.3-0.7,2-1c-0.5,0.2-1.8,0.6,0.4-0.1c1.4-0.5,2.8-0.9,4.3-1.2c0.6-0.1,1.1-0.2,1.7-0.3c1.9-0.4-1.6,0.1,0.3,0
	c1.3-0.1,2.7-0.2,4-0.2c1.3,0,2.7,0.1,4,0.2c0.3,0,2.6,0.3,1.3,0.1c-1.2-0.2,2,0.4,1.9,0.4c2.6,0.6,5.3,1.4,7.8,2.4
	c-1.5-0.6,1.6,0.8,2,1c1.4,0.7,2.7,1.5,4,2.3c3.6,2.4,8.6,7.2,11.6,10.9c3,3.8,6.5,9.7,9,14.8c2.6,5.4,3.9,9.5,6.3,15.7
	c2.8,7.6,7.2,14.8,15.6,17.1c7.6,2.1,15.6-0.8,23-2.5c7-1.7,14-3.2,21.1-3.6c6.4-0.3,12.5,0,18.5,2.4c-1.5-0.6,2.1,1.1,2.5,1.4
	c1,0.6,2,1.2,3,1.9c-1.1-0.8,1.8,1.5,2.2,1.9c1.1,1.1,2.2,2.2,3.1,3.4c-1.1-1.4,0.9,1.4,1.1,1.9c0.3,0.5,1.7,3.5,1,1.7
	c0.5,1.2,0.8,2.4,1.1,3.7c0.5,1.8-0.1-1.7,0.1,0.2c0.1,0.9,0.1,1.8,0.1,2.7c0,0.1-0.2,1.9,0,0.7c0.2-1.4-0.3,0.9-0.3,1.2
	c-0.2,0.6-0.3,1.2-0.5,1.7c0.2-0.5,0.8-1.4-0.3,0.6c-1.7,3-2.5,4-4.5,6.1c-10.1,10.8-22,20.2-32.9,30.1c-6.4,5.8-12.1,11.6-13,20.6
	c-0.7,7.5,1.9,15,4.3,22c2.1,6.2,4.6,12.3,6.7,18.5c1.1,3.1,2.1,6.3,3,9.5c0.7,2.7,1.6,6.7,1.9,8.5c0.2,1.3,0.3,5.3,0.1,7.7
	c-0.1,1.4,0,0.2,0.1-0.1c-0.1,0.8-0.3,1.6-0.5,2.4c-0.4,1.6-0.8,3.2-1.5,4.7c0.5-1.3-0.4,0.7-0.4,0.7c-0.4,0.6-0.7,1.3-1.1,1.9
	c-0.3,0.5-0.6,0.9-0.9,1.4c-1.1,1.5,1-1.1-0.2,0.2c-0.9,0.9-1.8,1.8-2.7,2.7c0,0-1.4,1.2-0.5,0.5c1-0.8-1.3,0.9-1.5,1
	c-1.1,0.7-2.2,1.3-3.3,1.9c-0.2,0.1-2.3,1.1-1.1,0.6c1.1-0.5-0.6,0.2-0.7,0.3c-2.8,1-5.7,1.8-8.7,2.2c2-0.3-1.4,0.1-2,0.1
	c-1.3,0.1-2.6,0.1-3.9,0c-0.7,0-1.5-0.1-2.2-0.1c-0.1,0-1.9-0.2-0.7,0c1.2,0.2-0.6-0.1-0.7-0.1c-1.1-0.2-2.2-0.4-3.3-0.7
	c-11.7-2.8-22.4-10-31.6-17.8c-6.2-5.2-12.3-11.2-21-11.2c-9.1,0.1-14.5,6.6-19.5,13.2c-6.3,8.5-15.6,18.1-25,23.6
	c-5.1,3-8.7,4.6-14.8,5.9c-0.7,0.2-1.4,0.3-2.2,0.4c0.5-0.1,2.1-0.2-0.2,0c-1.3,0.1-2.6,0.2-3.8,0.2c-1.3,0-2.6,0-3.8-0.1
	c-0.7,0-4.5-0.6-2.4-0.2c-2.5-0.5-5-1-7.4-1.9c-0.7-0.2-1.4-0.5-2-0.7c0.5,0.2,1.7,0.9-0.2-0.1c-1.2-0.7-2.5-1.3-3.7-2.1
	c-0.4-0.3-0.9-0.6-1.3-0.9c-1.5-1,1.2,1-0.2-0.1c-0.9-0.8-1.9-1.6-2.7-2.5c-0.5-0.5-1-1-1.4-1.6c0.1,0.2,0.9,1.3,0.2,0.2
	c-0.9-1.3-1.7-2.6-2.4-4c-2.3-4.5-2.9-9.3-2.6-15.1c0-0.5,0.3-4,0.2-2.8c0.2-1.5,0.5-3.1,0.8-4.6c0.7-3.3,1.7-6.6,2.7-9.8
	c2.1-6.4,4.3-11.2,7.1-17.3c3.3-7,0.6-14.3-6.9-16.9c-11.5-4-22.9-10-33.3-17.5c-4.3-3.1-9.4-7.3-13.6-11.6
	c-2.1-2.2-3.5-3.7-4.7-5.6c-1.9-2.9-2.5-3.8-2.8-7c0.2,2,0.3-2.6,0.2-1.6c-0.2,1.1,0.2-0.9,0.2-0.9c0.2-0.8,0.4-1.6,0.7-2.3
	c-0.5,1.3,1-1.8,1.3-2.2c0.3-0.5,0.7-1.1,1-1.6c2.1-3.1-0.5,0.5,0.9-1.1c1.9-2.2,4-4.2,6.3-6c1-0.8,0.3-0.2,0.1-0.1
	c0.6-0.5,1.3-1,2-1.4c1.3-0.9,2.7-1.8,4-2.6c2.4-1.4,4.9-2.7,7.4-3.9c0.2-0.1,2-0.8,0.6-0.2c0.6-0.2,1.1-0.4,1.7-0.6
	c1.5-0.6,3-1.1,4.6-1.6c5.7-1.8,11.4-3,17.3-3.9c0.2,0,2.2-0.3,0.6-0.1c0.8-0.1,1.7-0.2,2.5-0.3c1.7-0.2,3.3-0.4,5-0.5
	c3.3-0.3,6.7-0.5,10-0.6c7.1-0.3,14.1-0.3,21.2-0.3c6.2,0,11.5-5.3,11.5-11.5c0-6.3-5.3-11.5-11.5-11.5
	c-28.1-0.1-58.8,0.6-83.5,15.8c-13.3,8.2-25.7,20.8-26.8,37.2c-1.1,16.5,11.7,29.6,23.6,39.2c14.3,11.6,30.2,20.5,47.6,26.5
	c-2.3-5.6-4.6-11.3-6.9-16.9c-12.1,25.8-24.3,61.5,0.6,84.2c21.4,19.5,54,16.8,76.5,0.7c6-4.3,11.6-9.2,16.7-14.6
	c2.2-2.4,4.3-4.8,6.3-7.4c1.4-1.8,2.8-3.6,4.2-5.4c0.5-0.7,1-1.4,1.5-2.1c1.1-1.5-0.1,0,0.7-0.8c0.1-0.1,1.2-1.1,1.2-1.2
	c0.1,0.7-2.7,1-3.1,1.2c0.1,0-1.2-0.3-1.2-0.3c-0.5,0.4,1.8,1,0.9,0.4c3.1,2.1,5.8,5,8.7,7.4c6,4.9,12.3,9.5,19.1,13.2
	c13.5,7.3,28.2,10.8,43.4,8.4c13.5-2.1,26-9.5,33.6-20.9c8.5-12.9,8-29,4.2-43.4c-1.8-6.9-4.4-13.6-6.9-20.4
	c-2.4-6.5-5.7-13.7-6.6-20.6c-0.1-0.4,0.2-2.5,0-1.7c-0.3,1,1.1-1.4,0.5-0.7c-0.7,0.8,1.1-1.1,1.2-1.2c2.8-2.8,5.9-5.4,8.9-8.1
	c6.3-5.7,12.7-11.4,19-17.2c11.1-10,23.2-21.6,22.3-38c-0.8-14.8-10.4-27.7-23-35c-14.8-8.6-32.3-7.9-48.6-4.9
	c-3.8,0.7-7.6,1.5-11.3,2.4c-2,0.5-4,1-6,1.4c-0.7,0.2-1.5,0.4-2.2,0.5c0.1,0-3.6,0.8-1.9,0.5c-1.2,0.2-1.1-0.5-0.6,0.1
	c0,0,1.6,0.7,1.3,0.7c0.4,0.1,0.6,1.4,0.2,0.2c-0.1-0.2-1.2-2.2-0.7-1.1c0.5,1.1-0.4-1-0.5-1.3c-0.3-0.7-0.5-1.5-0.8-2.2
	c-0.6-1.8-1.3-3.6-1.9-5.3c-5.2-13.6-12.1-26.5-22.3-37c-19.8-20.4-54.2-27.8-77.1-8c-20.6,17.8-17.5,47.1-19.5,71.5
	c-0.1,1.5-0.3,3.1-0.4,4.6c0,0.3-0.3,2.3,0,0.3c-0.1,0.7-0.2,1.5-0.4,2.2c-0.5,2.9-1.2,5.9-2,8.7c-1.8,6,2.1,12.5,8,14.2
	C551.1,114.8,557.3,111,559.1,105.1z"/>
<path fill="#CF96FB" d="M306.7,55.8c5.7,18.8,11.3,37.6,17,56.4c1.8,6,8.1,9.7,14.2,8c5.9-1.6,9.8-8.2,8-14.2
	c-5.7-18.8-11.3-37.6-17-56.4c-1.8-6-8.1-9.7-14.2-8C308.8,43.3,304.9,49.8,306.7,55.8z"/>
<path fill="#CF96FB" d="M295.3,98.6c22.7-9.4,46.4-16.2,70.6-20.3c6.1-1,9.6-8.6,8-14.2c-1.8-6.5-8-9.1-14.2-8
	c-24.2,4.1-47.9,10.9-70.6,20.3c-5.7,2.4-9.8,7.6-8,14.2C282.6,96,289.5,101,295.3,98.6z"/>
<path fill="#CF96FB" d="M541.6,535.2c-5.9,15.2-16.1,29.2-28.8,40.5c-4.7,4.1-4.2,12.1,0,16.3c4.6,4.6,11.6,4.1,16.3,0
	c15.6-13.9,27.2-31.3,34.7-50.7c2.3-5.8-2.5-12.6-8-14.2C549.3,525.4,543.9,529.4,541.6,535.2z"/>
<path fill="#CF96FB" d="M595.5,546.5c-8.3,12.8-16.6,25.7-24.8,38.5c-3.4,5.2-1.1,12.7,4.1,15.8c5.6,3.3,12.4,1.1,15.8-4.1
	c8.3-12.8,16.6-25.7,24.8-38.5c3.4-5.2,1.1-12.7-4.1-15.8C605.7,539.1,598.9,541.3,595.5,546.5z"/>
<path fill="#CF96FB" d="M81.5,275.4c-11.4,19.5-19.8,40.9-24.4,63.1c-1.3,6.1,1.8,12.4,8,14.2c5.7,1.6,12.9-1.9,14.2-8
	C83.6,324,90.8,305,101.3,287C108.8,274.2,88.9,262.6,81.5,275.4z"/>
<path fill="#CF96FB" d="M15.1,296.8c-4.6,10.6-9.2,21.2-13.8,31.8c-2.5,5.7-1.7,12.4,4.1,15.8c4.9,2.8,13.3,1.6,15.8-4.1
	c4.6-10.6,9.2-21.2,13.8-31.8c2.5-5.7,1.7-12.4-4.1-15.8C26,289.8,17.6,291.1,15.1,296.8z"/>
</svg>
